# Blender 5.2.0 LTS
# www.blender.org
o Building.005
v -15.000000 84.453537 -5.503078
v -15.000000 84.453537 -10.903079
v -13.300000 84.453537 -5.503078
v -13.300000 84.453537 -10.903079
v -13.300000 86.153542 -5.503078
v -13.300001 86.153542 -10.903078
v -15.000000 86.153542 -10.903079
v -15.000000 86.153542 -5.503078
v -15.000000 84.453537 2.847452
v -15.000000 84.453537 -2.552547
v -13.300000 84.453537 2.847452
v -13.300000 84.453537 -2.552547
v -13.300000 86.153542 2.847452
v -13.300001 86.153542 -2.552547
v -15.000000 86.153542 -2.552547
v -15.000000 86.153542 2.847452
v -15.000000 84.453537 11.085869
v -15.000000 84.453537 5.685867
v -13.300000 84.453537 11.085869
v -13.300000 84.453537 5.685867
v -13.300000 86.153542 11.085869
v -13.300001 86.153542 5.685869
v -15.000000 86.153542 5.685867
v -15.000000 86.153542 11.085869
v -15.000000 69.274673 -5.503078
v -15.000000 69.274673 -10.903079
v -13.300000 69.274673 -5.503078
v -13.300000 69.274673 -10.903079
v -13.300000 70.974670 -5.503078
v -13.300001 70.974670 -10.903078
v -15.000000 70.974670 -10.903079
v -15.000000 70.974670 -5.503078
v -15.000000 69.274673 2.847452
v -15.000000 69.274673 -2.552547
v -13.300000 69.274673 2.847452
v -13.300000 69.274673 -2.552547
v -13.300000 70.974670 2.847452
v -13.300001 70.974670 -2.552547
v -15.000000 70.974670 -2.552547
v -15.000000 70.974670 2.847452
v -15.000000 69.274673 11.085869
v -15.000000 69.274673 5.685867
v -13.300000 69.274673 11.085869
v -13.300000 69.274673 5.685867
v -13.300000 70.974670 11.085869
v -13.300001 70.974670 5.685869
v -15.000000 70.974670 5.685867
v -15.000000 70.974670 11.085869
v -15.000000 53.201332 -5.503078
v -15.000000 53.201332 -10.903079
v -13.300000 53.201332 -5.503078
v -13.300000 53.201332 -10.903079
v -13.300000 54.901329 -5.503078
v -13.300001 54.901329 -10.903078
v -15.000000 54.901329 -10.903079
v -15.000000 54.901329 -5.503078
v -15.000000 53.201332 2.847452
v -15.000000 53.201332 -2.552547
v -13.300000 53.201332 2.847452
v -13.300000 53.201332 -2.552547
v -13.300000 54.901329 2.847452
v -13.300001 54.901329 -2.552547
v -15.000000 54.901329 -2.552547
v -15.000000 54.901329 2.847452
v -15.000000 53.201332 11.085869
v -15.000000 53.201332 5.685867
v -13.300000 53.201332 11.085869
v -13.300000 53.201332 5.685867
v -13.300000 54.901329 11.085869
v -13.300001 54.901329 5.685869
v -15.000000 54.901329 5.685867
v -15.000000 54.901329 11.085869
v -15.000000 37.512440 -5.503078
v -15.000000 37.512440 -10.903079
v -13.300000 37.512440 -5.503078
v -13.300000 37.512440 -10.903079
v -13.300000 39.212440 -5.503078
v -13.300001 39.212440 -10.903078
v -15.000000 39.212440 -10.903079
v -15.000000 39.212440 -5.503078
v -15.000000 37.512440 2.847452
v -15.000000 37.512440 -2.552547
v -13.300000 37.512440 2.847452
v -13.300000 37.512440 -2.552547
v -13.300000 39.212440 2.847452
v -13.300001 39.212440 -2.552547
v -15.000000 39.212440 -2.552547
v -15.000000 39.212440 2.847452
v -15.000000 37.512440 11.085869
v -15.000000 37.512440 5.685867
v -13.300000 37.512440 11.085869
v -13.300000 37.512440 5.685867
v -13.300000 39.212440 11.085869
v -13.300001 39.212440 5.685869
v -15.000000 39.212440 5.685867
v -15.000000 39.212440 11.085869
v -15.000000 22.734852 -5.503078
v -15.000000 22.734852 -10.903079
v -13.300000 22.734852 -5.503078
v -13.300000 22.734852 -10.903079
v -13.300000 24.434853 -5.503078
v -13.300001 24.434853 -10.903078
v -15.000000 24.434853 -10.903079
v -15.000000 24.434853 -5.503078
v -15.000000 22.734852 2.847452
v -15.000000 22.734852 -2.552547
v -13.300000 22.734852 2.847452
v -13.300000 22.734852 -2.552547
v -13.300000 24.434853 2.847452
v -13.300001 24.434853 -2.552547
v -15.000000 24.434853 -2.552547
v -15.000000 24.434853 2.847452
v -15.000000 22.734852 11.085869
v -15.000000 22.734852 5.685867
v -13.300000 22.734852 11.085869
v -13.300000 22.734852 5.685867
v -13.300000 24.434853 11.085869
v -13.300001 24.434853 5.685869
v -15.000000 24.434853 5.685867
v -15.000000 24.434853 11.085869
v -15.000000 0.500000 15.000000
v -15.000000 0.500000 -15.000000
v -15.000000 0.500000 15.000000
v -15.000000 0.500000 -15.000000
v -15.000000 0.500000 15.000000
v -15.000000 100.000000 15.000000
v -15.000000 0.500000 -15.000000
v -15.000000 100.000000 -15.000000
v -15.000000 0.500000 15.000000
v -15.000000 0.500000 -15.000000
v -15.000000 0.500000 15.000000
v -15.000000 0.500000 -15.000000
vn 1.0000 -0.0000 -0.0000
vn -0.0000 -0.0000 -1.0000
vn -0.0000 -0.0000 1.0000
vn -0.0000 -1.0000 -0.0000
vn -0.0000 1.0000 -0.0000
vt 0.777697 0.564514
vt 0.798179 0.629574
vt 0.798179 0.564514
vt 0.798179 0.670538
vt 0.777697 0.650056
vt 0.777697 0.670538
vt 0.818661 0.650056
vt 0.798179 0.650056
vt 0.900678 0.762462
vt 0.880196 0.697402
vt 0.880196 0.762462
vt 0.947477 0.507681
vt 0.967959 0.572741
vt 0.967959 0.507681
vt 0.818661 0.670538
vt 0.798179 0.670538
vt 0.967959 0.788404
vt 0.947477 0.767922
vt 0.947477 0.788404
vt 0.988441 0.637801
vt 0.967959 0.572741
vt 0.967959 0.637801
vt 0.851280 0.565836
vt 0.871762 0.630896
vt 0.871762 0.565836
vt 0.775136 0.766077
vt 0.754654 0.745595
vt 0.754654 0.766077
vt 0.795617 0.766077
vt 0.775136 0.745595
vt 0.775136 0.766077
vt 0.967959 0.767922
vt 0.947477 0.702861
vt 0.947477 0.312500
vt 0.967959 0.377560
vt 0.967959 0.312500
vt 0.798179 0.650056
vt 0.777697 0.629574
vt 0.816099 0.766077
vt 0.795618 0.745595
vt 0.795618 0.766077
vt 0.988441 0.377560
vt 0.967959 0.312500
vt 0.816100 0.680535
vt 0.836581 0.745595
vt 0.836581 0.680535
vt 0.836581 0.766077
vt 0.816099 0.745595
vt 0.816099 0.766077
vt 0.988441 0.788404
vt 0.967959 0.767922
vt 0.967959 0.788404
vt 0.988441 0.702861
vt 0.967959 0.702861
vt 0.839232 0.632342
vt 0.859714 0.697402
vt 0.859714 0.632342
vt 0.772553 0.554556
vt 0.752071 0.534074
vt 0.752071 0.554556
vt 0.793035 0.554556
vt 0.772553 0.534074
vt 0.772553 0.554556
vt 0.892244 0.630896
vt 0.871762 0.630896
vt 0.947477 0.377560
vt 0.967959 0.442620
vt 0.967959 0.377560
vt 0.731589 0.534074
vt 0.731589 0.554556
vt 0.813517 0.554556
vt 0.793035 0.534074
vt 0.793035 0.554556
vt 0.988441 0.442620
vt 0.967959 0.377560
vt 0.967959 0.442620
vt 0.880196 0.697402
vt 0.880196 0.632342
vt 0.833998 0.554556
vt 0.813517 0.534074
vt 0.854480 0.554556
vt 0.833999 0.534074
vt 0.833999 0.554556
vt 0.988441 0.767922
vt 0.754654 0.680535
vt 0.775136 0.745595
vt 0.775136 0.680535
vt 0.874962 0.554556
vt 0.854480 0.534074
vt 0.854480 0.554556
vt 0.895444 0.554556
vt 0.874962 0.534074
vt 0.874962 0.554556
vt 0.900678 0.697402
vt 0.880196 0.632342
vt 0.880196 0.697402
vt 0.798179 0.564514
vt 0.818661 0.629574
vt 0.818661 0.564514
vt 0.915926 0.554556
vt 0.895444 0.534074
vt 0.895444 0.554556
vt 0.921160 0.717884
vt 0.900678 0.697402
vt 0.900678 0.717884
vt 0.988441 0.507681
vt 0.967959 0.507681
vt 0.947477 0.572741
vt 0.967959 0.637801
vt 0.921160 0.738366
vt 0.900678 0.717884
vt 0.900678 0.738366
vt 0.921160 0.758848
vt 0.900678 0.738366
vt 0.900678 0.758848
vt 0.912726 0.630896
vt 0.892244 0.565836
vt 0.892244 0.630896
vt 0.947477 0.637801
vt 0.967959 0.702861
vt 0.921160 0.779330
vt 0.900678 0.758848
vt 0.900678 0.779330
vt 0.859714 0.782944
vt 0.839232 0.762462
vt 0.839232 0.782944
vt 0.859714 0.762462
vt 0.839232 0.697402
vt 0.839232 0.762462
vt 0.947477 0.442621
vt 0.967959 0.442621
vt 0.880196 0.782944
vt 0.859714 0.782944
vt 0.900678 0.782944
vt 0.880196 0.762462
vt 0.880196 0.782944
vt 0.988441 0.572741
vt 0.967959 0.572741
vt 0.775136 0.680535
vt 0.795618 0.680535
vt 0.775136 0.786559
vt 0.754654 0.766077
vt 0.754654 0.786559
vt 0.795617 0.786559
vt 0.775136 0.786559
vt 0.921160 0.697402
vt 0.900678 0.632342
vt 0.900678 0.697402
vt 0.795617 0.680535
vt 0.816099 0.745595
vt 0.816099 0.680535
vt 0.816099 0.786559
vt 0.836581 0.786559
vt 0.880196 0.762462
vt 0.859714 0.697402
vt 0.000000 0.000000
vt 0.361446 1.000000
vt 0.000000 1.000000
vt 0.900678 0.697402
vt 0.947477 0.572741
vt 0.988441 0.572741
vt 0.851280 0.630896
vt 0.775136 0.745595
vt 0.795617 0.745595
vt 0.798179 0.629574
vt 0.988441 0.312500
vt 0.816100 0.745595
vt 0.836581 0.745595
vt 0.839232 0.697402
vt 0.772553 0.534074
vt 0.793035 0.534074
vt 0.892244 0.565836
vt 0.947477 0.442620
vt 0.813517 0.534074
vt 0.988441 0.377560
vt 0.859714 0.697402
vt 0.833998 0.534074
vt 0.874962 0.534074
vt 0.900678 0.632342
vt 0.915926 0.534074
vt 0.921160 0.697402
vt 0.947477 0.637801
vt 0.921160 0.717884
vt 0.921160 0.738366
vt 0.912726 0.565836
vt 0.921160 0.758848
vt 0.859714 0.762462
vt 0.900678 0.762462
vt 0.775136 0.766077
vt 0.795617 0.766077
vt 0.921160 0.632342
vt 0.795617 0.745595
vt 0.836581 0.766077
vt 0.880196 0.697402
vt 0.361446 0.000000
s 0
f 6/1/1 3/2/1 4/3/1
f 2/4/2 6/5/2 4/6/2
f 3/7/3 8/2/3 1/8/3
f 4/9/4 1/10/4 2/11/4
f 14/12/1 11/13/1 12/14/1
f 10/15/2 14/8/2 12/16/2
f 11/17/3 16/18/3 9/19/3
f 12/20/4 9/21/4 10/22/4
f 22/23/1 19/24/1 20/25/1
f 18/26/2 22/27/2 20/28/2
f 19/29/3 24/30/3 17/31/3
f 20/32/4 17/33/4 18/18/4
f 30/34/1 27/35/1 28/36/1
f 26/37/2 30/38/2 28/5/2
f 27/39/3 32/40/3 25/41/3
f 28/42/4 25/43/4 26/35/4
f 38/44/1 35/45/1 36/46/1
f 34/47/2 38/48/2 36/49/2
f 35/50/3 40/51/3 33/52/3
f 36/53/4 33/22/4 34/54/4
f 46/55/1 43/56/1 44/57/1
f 42/58/2 46/59/2 44/60/2
f 43/61/3 48/62/3 41/63/3
f 44/64/4 41/25/4 42/65/4
f 54/66/1 51/67/1 52/68/1
f 50/60/2 54/69/2 52/70/2
f 51/71/3 56/72/3 49/73/3
f 52/74/4 49/75/4 50/76/4
f 62/57/1 59/77/1 60/78/1
f 58/79/2 62/80/2 60/71/2
f 59/81/3 64/82/3 57/83/3
f 60/84/4 57/54/4 58/51/4
f 70/85/1 67/86/1 68/87/1
f 66/88/2 70/89/2 68/90/2
f 67/91/3 72/92/3 65/93/3
f 68/94/4 65/95/4 66/96/4
f 78/97/1 75/98/1 76/99/1
f 74/100/2 78/101/2 76/102/2
f 75/103/3 80/104/3 73/105/3
f 76/106/4 73/76/4 74/107/4
f 86/108/1 83/109/1 84/13/1
f 82/110/2 86/111/2 84/112/2
f 83/113/3 88/114/3 81/115/3
f 84/116/4 81/117/4 82/118/4
f 94/119/1 91/120/1 92/109/1
f 90/121/2 94/122/2 92/123/2
f 91/124/3 96/125/3 89/126/3
f 92/127/4 89/128/4 90/129/4
f 102/130/1 99/14/1 100/131/1
f 98/132/2 102/127/2 100/133/2
f 99/134/3 104/135/3 97/136/3
f 100/137/4 97/107/4 98/138/4
f 110/139/1 107/40/1 108/140/1
f 106/141/2 110/142/2 108/143/2
f 107/144/3 112/26/3 105/145/3
f 108/146/4 105/147/4 106/148/4
f 118/149/1 115/150/1 116/151/1
f 114/152/2 118/41/2 116/144/2
f 115/153/3 120/39/3 113/152/3
f 116/154/4 113/155/4 114/127/4
f 121/38/5 124/38/5 123/38/5
f 128/156/1 125/157/1 127/158/1
f 129/38/5 132/38/5 131/38/5
f 6/1/1 5/38/1 3/2/1
f 2/4/2 7/37/2 6/5/2
f 3/7/3 5/98/3 8/2/3
f 4/9/4 3/159/4 1/10/4
f 14/12/1 13/160/1 11/13/1
f 10/15/2 15/7/2 14/8/2
f 11/17/3 13/32/3 16/18/3
f 12/20/4 11/161/4 9/21/4
f 22/23/1 21/162/1 19/24/1
f 18/26/2 23/163/2 22/27/2
f 19/29/3 21/164/3 24/30/3
f 20/32/4 19/120/4 17/33/4
f 30/34/1 29/66/1 27/35/1
f 26/37/2 31/165/2 30/38/2
f 27/39/3 29/150/3 32/40/3
f 28/42/4 27/166/4 25/43/4
f 38/44/1 37/167/1 35/45/1
f 34/47/2 39/168/2 38/48/2
f 35/50/3 37/84/3 40/51/3
f 36/53/4 35/20/4 33/22/4
f 46/55/1 45/169/1 43/56/1
f 42/58/2 47/170/2 46/59/2
f 43/61/3 45/171/3 48/62/3
f 44/64/4 43/172/4 41/25/4
f 54/66/1 53/173/1 51/67/1
f 50/60/2 55/59/2 54/69/2
f 51/71/3 53/174/3 56/72/3
f 52/74/4 51/175/4 49/75/4
f 62/57/1 61/176/1 59/77/1
f 58/79/2 63/177/2 62/80/2
f 59/81/3 61/89/3 64/82/3
f 60/84/4 59/53/4 57/54/4
f 70/85/1 69/27/1 67/86/1
f 66/88/2 71/178/2 70/89/2
f 67/91/3 69/101/3 72/92/3
f 68/94/4 67/179/4 65/95/4
f 78/97/1 77/2/1 75/98/1
f 74/100/2 79/180/2 78/101/2
f 75/103/3 77/181/3 80/104/3
f 76/106/4 75/74/4 73/76/4
f 86/108/1 85/182/1 83/109/1
f 82/110/2 87/183/2 86/111/2
f 83/113/3 85/184/3 88/114/3
f 84/116/4 83/185/4 81/117/4
f 94/119/1 93/33/1 91/120/1
f 90/121/2 95/186/2 94/122/2
f 91/124/3 93/187/3 96/125/3
f 92/127/4 91/155/4 89/128/4
f 102/130/1 101/12/1 99/14/1
f 98/132/2 103/11/2 102/127/2
f 99/134/3 101/188/3 104/135/3
f 100/137/4 99/106/4 97/107/4
f 110/139/1 109/86/1 107/40/1
f 106/141/2 111/189/2 110/142/2
f 107/144/3 109/190/3 112/26/3
f 108/146/4 107/191/4 105/147/4
f 118/149/1 117/192/1 115/150/1
f 114/152/2 119/39/2 118/41/2
f 115/153/3 117/193/3 120/39/3
f 116/154/4 115/194/4 113/155/4
f 121/38/5 122/38/5 124/38/5
f 128/156/1 126/195/1 125/157/1
f 129/38/5 130/38/5 132/38/5
