# Blender 5.1.2
# www.blender.org
o Building.004
v -15.000000 100.000000 13.000000
v -15.000000 100.000000 -13.000000
v -62.000000 0.500000 -13.000000
v -62.000000 100.000000 -13.000000
v -62.000000 0.500000 13.000000
v -62.000000 100.000000 13.000000
v -15.000000 0.500000 13.000000
v -15.000000 0.500000 -13.000000
v -56.442471 5.603951 -10.812238
v -58.051144 5.603951 -11.478569
v -58.051144 0.499996 -11.478569
v -58.051144 6.538311 -11.478569
v -56.442471 0.499996 -10.812238
v -56.442471 6.538311 -10.812238
v -55.776142 0.499996 -9.203568
v -55.776142 6.538311 -9.203568
v -56.442471 0.499996 -7.594899
v -56.442471 6.538311 -7.594899
v -58.051144 0.499996 -6.928569
v -58.051144 6.538311 -6.928569
v -59.659809 0.499996 -7.594899
v -59.659809 6.538311 -7.594899
v -60.326141 0.499996 -9.203568
v -60.326141 6.538311 -9.203568
v -59.659809 0.499996 -10.812238
v -59.659809 6.538311 -10.812238
v -55.776142 5.603951 -9.203568
v -56.442471 5.603951 -7.594899
v -58.051144 5.603951 -6.928569
v -59.659809 5.603951 -7.594899
v -60.326141 5.603951 -9.203568
v -59.659809 5.603951 -10.812238
v -49.442471 5.603951 -10.812238
v -51.051144 5.603951 -11.478569
v -51.051144 0.499996 -11.478569
v -51.051144 6.538311 -11.478569
v -49.442471 0.499996 -10.812238
v -49.442471 6.538311 -10.812238
v -48.776142 0.499996 -9.203568
v -48.776142 6.538311 -9.203568
v -49.442471 0.499996 -7.594899
v -49.442471 6.538311 -7.594899
v -51.051144 0.499996 -6.928569
v -51.051144 6.538311 -6.928569
v -52.659809 0.499996 -7.594899
v -52.659809 6.538311 -7.594899
v -53.326141 0.499996 -9.203568
v -53.326141 6.538311 -9.203568
v -52.659809 0.499996 -10.812238
v -52.659809 6.538311 -10.812238
v -48.776142 5.603951 -9.203568
v -49.442471 5.603951 -7.594899
v -51.051144 5.603951 -6.928569
v -52.659809 5.603951 -7.594899
v -53.326141 5.603951 -9.203568
v -52.659809 5.603951 -10.812238
v -56.442471 5.603951 7.187763
v -58.051144 5.603951 6.521431
v -58.051144 0.499996 6.521431
v -58.051144 6.538311 6.521431
v -56.442471 0.499996 7.187763
v -56.442471 6.538311 7.187763
v -55.776142 0.499996 8.796432
v -55.776142 6.538311 8.796432
v -56.442471 0.499996 10.405102
v -56.442471 6.538311 10.405102
v -58.051144 0.499996 11.071430
v -58.051144 6.538311 11.071430
v -59.659809 0.499996 10.405102
v -59.659809 6.538311 10.405102
v -60.326141 0.499996 8.796432
v -60.326141 6.538311 8.796432
v -59.659809 0.499996 7.187763
v -59.659809 6.538311 7.187763
v -55.776142 5.603951 8.796432
v -56.442471 5.603951 10.405102
v -58.051144 5.603951 11.071430
v -59.659809 5.603951 10.405102
v -60.326141 5.603951 8.796432
v -59.659809 5.603951 7.187763
v -56.442471 5.603951 0.187763
v -58.051144 5.603951 -0.478569
v -58.051144 0.499996 -0.478569
v -58.051144 6.538311 -0.478569
v -56.442471 0.499996 0.187763
v -56.442471 6.538311 0.187763
v -55.776142 0.499996 1.796432
v -55.776142 6.538311 1.796432
v -56.442471 0.499996 3.405102
v -56.442471 6.538311 3.405102
v -58.051144 0.499996 4.071430
v -58.051144 6.538311 4.071430
v -59.659809 0.499996 3.405102
v -59.659809 6.538311 3.405102
v -60.326141 0.499996 1.796432
v -60.326141 6.538311 1.796432
v -59.659809 0.499996 0.187763
v -59.659809 6.538311 0.187763
v -55.776142 5.603951 1.796432
v -56.442471 5.603951 3.405102
v -58.051144 5.603951 4.071430
v -59.659809 5.603951 3.405102
v -60.326141 5.603951 1.796432
v -59.659809 5.603951 0.187763
v -56.743233 1.484661 -2.081493
v -59.564579 1.484661 -0.632061
v -54.598289 1.484661 -7.481679
v -58.598289 1.484661 -7.481679
v -52.681732 0.499996 2.810234
v -53.716087 0.499996 -13.000000
v -58.080673 0.484653 -2.565151
v -58.080673 0.733784 -3.099413
v -56.319061 1.145969 -2.256773
v -56.319061 1.395100 -2.791035
v -55.589386 2.742527 -1.512287
v -55.589386 2.991657 -2.046549
v -56.319061 4.339085 -0.767799
v -56.319061 4.588215 -1.302061
v -58.080673 5.000397 -0.459423
v -58.080673 5.249527 -0.993685
v -59.842278 4.339085 -0.767799
v -59.842278 4.588215 -1.302061
v -60.571957 2.742527 -1.512287
v -60.571957 2.991657 -2.046549
v -59.842278 1.145969 -2.256773
v -59.842278 1.395100 -2.791035
v -49.997963 6.106331 5.791512
v -49.997963 6.695824 5.791512
v -48.236351 6.106331 6.521194
v -48.236351 6.695824 6.521194
v -47.506676 6.106331 8.282799
v -47.506676 6.695824 8.282799
v -48.236351 6.106331 10.044411
v -48.236351 6.695824 10.044411
v -49.997963 6.106331 10.774086
v -49.997963 6.695824 10.774086
v -51.759567 6.106331 10.044411
v -51.759567 6.695824 10.044411
v -52.489246 6.106331 8.282799
v -52.489246 6.695824 8.282799
v -51.759567 6.106331 6.521194
v -51.759567 6.695824 6.521194
v -52.079159 0.500000 -6.470574
v -52.079159 1.089493 -6.470574
v -50.317547 0.500000 -5.740893
v -50.317547 1.089493 -5.740893
v -49.587872 0.500000 -3.979287
v -49.587872 1.089493 -3.979287
v -50.317547 0.500000 -2.217676
v -50.317547 1.089493 -2.217676
v -52.079159 0.500000 -1.487999
v -52.079159 1.089493 -1.487999
v -53.840763 0.500000 -2.217676
v -53.840763 1.089493 -2.217676
v -54.570442 0.500000 -3.979287
v -54.570442 1.089493 -3.979287
v -53.840763 0.500000 -5.740893
v -53.840763 1.089493 -5.740893
v -48.377819 5.603951 6.689070
v -49.986492 5.603951 6.022738
v -49.986492 0.499996 6.022738
v -49.986492 6.538311 6.022738
v -48.377819 0.499996 6.689070
v -48.377819 6.538311 6.689070
v -47.711491 0.499996 8.297739
v -47.711491 6.538311 8.297739
v -48.377819 0.499996 9.906406
v -48.377819 6.538311 9.906406
v -49.986492 0.499996 10.572735
v -49.986492 6.538311 10.572735
v -51.595158 0.499996 9.906406
v -51.595158 6.538311 9.906406
v -52.261490 0.499996 8.297739
v -52.261490 6.538311 8.297739
v -51.595158 0.499996 6.689070
v -51.595158 6.538311 6.689070
v -47.711491 5.603951 8.297739
v -48.377819 5.603951 9.906406
v -49.986492 5.603951 10.572735
v -51.595158 5.603951 9.906406
v -52.261490 5.603951 8.297739
v -51.595158 5.603951 6.689070
v -15.000000 100.000000 -15.000000
v -15.000000 0.500000 -15.000000
v -15.000000 100.000000 15.000000
v -15.000000 0.500000 15.000000
vn -0.0000 -0.0000 -1.0000
vn -0.0000 -1.0000 -0.0000
vn -1.0000 -0.0000 -0.0000
vn -0.0000 -0.0000 1.0000
vn 0.3827 -0.0000 -0.9239
vn 0.9239 -0.0000 -0.3827
vn 0.9239 -0.0000 0.3827
vn 0.3827 -0.0000 0.9239
vn -0.3827 -0.0000 0.9239
vn -0.9239 -0.0000 0.3827
vn -0.9239 -0.0000 -0.3827
vn -0.3827 -0.0000 -0.9239
vn -0.0000 1.0000 -0.0000
vn -0.3748 0.9271 -0.0000
vn 0.6204 0.7833 -0.0406
vn 0.0716 0.9876 0.1394
vn -0.0000 0.9845 -0.1757
vn 0.3827 -0.8373 -0.3904
vn 0.9239 -0.3468 -0.1617
vn 0.9239 0.3468 0.1617
vn 0.3827 0.8373 0.3904
vn -0.3827 0.8373 0.3905
vn -0.9239 0.3468 0.1617
vn -0.9239 -0.3468 -0.1617
vn -0.3827 -0.8373 -0.3904
vn -0.0000 0.4226 -0.9063
vn -0.2292 0.9729 -0.0323
vn 0.1615 0.9848 0.0641
vn 0.0973 0.9913 0.0890
vn 0.3827 0.8373 0.3905
vn -0.3827 0.8373 0.3904
vt 0.641815 0.000000
vt 0.320907 0.679093
vt 0.320907 0.000000
vt 0.202986 0.682920
vt 0.003038 0.996172
vt 0.003038 0.682920
vt 0.682907 1.000000
vt 0.944213 0.000000
vt 0.944213 1.000000
vt 0.320907 0.679368
vt -0.000000 0.000000
vt 0.367803 0.846998
vt 0.378786 0.888080
vt 0.367803 0.888210
vt 0.418335 0.889115
vt 0.430219 0.930290
vt 0.418335 0.930304
vt 0.430219 0.889101
vt 0.438840 0.930648
vt 0.466656 0.846868
vt 0.477640 0.888097
vt 0.466656 0.888097
vt 0.477640 0.846868
vt 0.488623 0.888097
vt 0.488623 0.846868
vt 0.499607 0.888097
vt 0.499607 0.846868
vt 0.510591 0.888097
vt 0.356819 0.846868
vt 0.356819 0.888080
vt 0.446093 0.971957
vt 0.425861 0.980364
vt 0.417478 0.960068
vt 0.389770 0.846998
vt 0.400754 0.888080
vt 0.389770 0.888210
vt 0.527483 0.889390
vt 0.539368 0.930566
vt 0.527483 0.930579
vt 0.539368 0.889377
vt 0.547988 0.930924
vt 0.510591 0.846868
vt 0.521574 0.888097
vt 0.521574 0.846868
vt 0.532558 0.888097
vt 0.532558 0.846868
vt 0.543542 0.888097
vt 0.543542 0.846868
vt 0.554526 0.888097
vt 0.378786 0.846868
vt 0.388863 0.971959
vt 0.368630 0.980364
vt 0.360249 0.960068
vt 0.411737 0.846998
vt 0.422721 0.888080
vt 0.411737 0.888210
vt 0.397829 0.888770
vt 0.409714 0.929945
vt 0.397829 0.929959
vt 0.409714 0.888756
vt 0.554526 0.846868
vt 0.565509 0.888097
vt 0.565509 0.846868
vt 0.576493 0.888097
vt 0.576493 0.846868
vt 0.587477 0.888097
vt 0.587477 0.846868
vt 0.598460 0.888097
vt 0.400754 0.846868
vt 0.503323 0.971958
vt 0.483089 0.980364
vt 0.474708 0.960068
vt 0.433705 0.846998
vt 0.444689 0.888080
vt 0.433705 0.888210
vt 0.368704 0.929256
vt 0.356819 0.929269
vt 0.368704 0.888067
vt 0.377324 0.929614
vt 0.439613 0.889377
vt 0.450597 0.930605
vt 0.439613 0.930605
vt 0.450597 0.889377
vt 0.461581 0.930605
vt 0.461581 0.889377
vt 0.472564 0.930605
vt 0.461581 0.930605
vt 0.472564 0.889377
vt 0.483548 0.930605
vt 0.422721 0.846868
vt 0.474708 0.971957
vt 0.454476 0.980364
vt 0.446093 0.960068
vt 0.287075 0.886669
vt 0.303178 0.788857
vt 0.303178 0.993595
vt 0.280494 0.839909
vt 0.267861 0.876735
vt 0.253253 0.839849
vt 0.239718 0.917089
vt 0.246763 0.788732
vt 0.396913 0.752650
vt 0.398455 0.764678
vt 0.394807 0.764678
vt 0.410049 0.764475
vt 0.407780 0.751524
vt 0.411604 0.751764
vt 0.406225 0.740622
vt 0.410049 0.740862
vt 0.404259 0.764730
vt 0.402526 0.752291
vt 0.406225 0.752405
vt 0.404259 0.740736
vt 0.362245 0.740690
vt 0.366270 0.752718
vt 0.362245 0.752718
vt 0.366270 0.764746
vt 0.362245 0.764746
vt 0.398455 0.740622
vt 0.394807 0.740622
vt 0.425637 0.790084
vt 0.446278 0.800434
vt 0.437728 0.821883
vt 0.382651 0.752718
vt 0.386533 0.740690
vt 0.386675 0.752718
vt 0.394807 0.742220
vt 0.391021 0.755300
vt 0.390787 0.742288
vt 0.395041 0.755233
vt 0.390787 0.764746
vt 0.370295 0.752718
vt 0.370295 0.764746
vt 0.366270 0.752718
vt 0.370295 0.740690
vt 0.378485 0.764746
vt 0.382510 0.752718
vt 0.382510 0.764746
vt 0.378485 0.752718
vt 0.382510 0.740690
vt 0.382510 0.764746
vt 0.386533 0.764746
vt 0.417087 0.812310
vt 0.394931 0.821514
vt 0.385753 0.799289
vt 0.374461 0.752718
vt 0.378343 0.740690
vt 0.378485 0.752718
vt 0.390553 0.742220
vt 0.386766 0.755300
vt 0.386533 0.742288
vt 0.390787 0.755233
vt 0.370295 0.764746
vt 0.374320 0.752718
vt 0.374319 0.764746
vt 0.370295 0.752718
vt 0.374320 0.740690
vt 0.358220 0.764746
vt 0.362245 0.764746
vt 0.358220 0.752718
vt 0.378343 0.764746
vt 0.385753 0.812308
vt 0.363596 0.821512
vt 0.354418 0.799287
vt 0.455672 0.846998
vt 0.466656 0.888080
vt 0.455672 0.888210
vt 0.377324 0.888425
vt 0.389209 0.929600
vt 0.389209 0.888411
vt 0.483548 0.889377
vt 0.494532 0.930605
vt 0.483548 0.930605
vt 0.494532 0.889377
vt 0.505516 0.930605
vt 0.505516 0.889377
vt 0.516499 0.930605
vt 0.516499 0.889377
vt 0.527483 0.930605
vt 0.444689 0.846868
vt 0.417478 0.971957
vt 0.397245 0.980364
vt 0.388863 0.960068
vt 0.959838 0.000000
vt 0.979939 1.000000
vt 0.959838 1.000000
vt 1.000039 1.000000
vt 0.979939 0.000000
vt 1.000039 0.000000
vt 0.641815 0.679093
vt 0.202986 0.996172
vt 0.682907 0.000000
vt -0.000000 0.679368
vt 0.438840 0.889459
vt 0.425859 0.951662
vt 0.437711 0.951662
vt 0.446093 0.960068
vt 0.437713 0.980364
vt 0.417479 0.971957
vt 0.547988 0.889735
vt 0.368630 0.951662
vt 0.380482 0.951663
vt 0.388863 0.960070
vt 0.380482 0.980365
vt 0.360249 0.971956
vt 0.598460 0.846868
vt 0.483089 0.951662
vt 0.494942 0.951663
vt 0.503323 0.960070
vt 0.494942 0.980364
vt 0.474708 0.971956
vt 0.377324 0.888425
vt 0.461581 0.889377
vt 0.483548 0.889377
vt 0.454474 0.951662
vt 0.466326 0.951662
vt 0.474708 0.960068
vt 0.466328 0.980364
vt 0.446094 0.971957
vt 0.400561 0.752650
vt 0.406225 0.764234
vt 0.400561 0.764616
vt 0.400561 0.740622
vt 0.366270 0.740690
vt 0.425637 0.821150
vt 0.417087 0.811533
vt 0.417087 0.798665
vt 0.437728 0.790816
vt 0.446278 0.813302
vt 0.366270 0.740690
vt 0.378485 0.740690
vt 0.394930 0.790084
vt 0.407910 0.790085
vt 0.417087 0.799291
vt 0.407910 0.821515
vt 0.374319 0.740690
vt 0.390553 0.764678
vt 0.370295 0.740690
vt 0.358220 0.740690
vt 0.363596 0.790082
vt 0.376575 0.790083
vt 0.385753 0.799289
vt 0.376575 0.821513
vt 0.354418 0.812306
vt 0.466656 0.846868
vt 0.397829 0.888770
vt 0.527483 0.889377
vt 0.397243 0.951662
vt 0.409096 0.951662
vt 0.417477 0.960068
vt 0.409098 0.980364
vt 0.388864 0.971957
s 0
f 2/1/1 3/2/1 4/3/1
f 3/4/2 7/5/2 5/6/2
f 5/7/3 4/8/3 3/9/3
f 5/10/4 1/11/4 6/3/4
f 12/12/5 13/13/5 11/14/5
f 14/15/6 15/16/6 13/17/6
f 16/18/7 17/19/7 15/16/7
f 18/20/8 19/21/8 17/22/8
f 20/23/9 21/24/9 19/21/9
f 22/25/10 23/26/10 21/24/10
f 24/27/11 25/28/11 23/26/11
f 26/29/12 11/14/12 25/30/12
f 31/31/13 29/32/13 27/33/13
f 36/34/5 37/35/5 35/36/5
f 38/37/6 39/38/6 37/39/6
f 40/40/7 41/41/7 39/38/7
f 42/42/8 43/43/8 41/28/8
f 44/44/9 45/45/9 43/43/9
f 46/46/10 47/47/10 45/45/10
f 48/48/11 49/49/11 47/47/11
f 50/50/12 35/36/12 49/13/12
f 55/51/13 53/52/13 51/53/13
f 60/54/5 61/55/5 59/56/5
f 62/57/6 63/58/6 61/59/6
f 64/60/7 65/17/7 63/58/7
f 66/61/8 67/62/8 65/49/8
f 68/63/9 69/64/9 67/62/9
f 70/65/10 71/66/10 69/64/10
f 72/67/11 73/68/11 71/66/11
f 74/69/12 59/56/12 73/35/12
f 79/70/13 77/71/13 75/72/13
f 84/73/5 85/74/5 83/75/5
f 86/30/6 87/76/6 85/77/6
f 88/78/7 89/79/7 87/76/7
f 90/80/8 91/81/8 89/82/8
f 92/83/9 93/84/9 91/81/9
f 94/85/10 95/86/10 93/87/10
f 96/88/11 97/89/11 95/86/11
f 98/90/12 83/75/12 97/55/12
f 103/91/13 101/92/13 99/93/13
f 106/94/14 3/95/14 5/96/14
f 108/97/13 105/98/13 107/99/13
f 107/99/15 109/100/15 110/101/15
f 106/94/16 109/100/16 105/98/16
f 110/101/17 108/97/17 107/99/17
f 111/102/18 114/103/18 113/104/18
f 113/105/19 116/106/19 115/107/19
f 115/107/20 118/108/20 117/109/20
f 117/110/21 120/111/21 119/112/21
f 120/111/22 121/113/22 119/112/22
f 121/114/23 124/115/23 123/116/23
f 123/116/24 126/117/24 125/118/24
f 126/119/25 111/102/25 125/120/25
f 124/121/26 120/122/26 116/123/26
f 128/124/5 129/125/5 127/126/5
f 130/127/6 131/128/6 129/129/6
f 132/130/7 133/131/7 131/128/7
f 134/117/8 135/132/8 133/133/8
f 136/134/9 137/135/9 135/132/9
f 138/136/10 139/137/10 137/138/10
f 140/139/11 141/140/11 139/137/11
f 142/141/12 127/126/12 141/142/12
f 140/143/13 136/144/13 132/145/13
f 144/146/5 145/147/5 143/148/5
f 146/149/6 147/150/6 145/151/6
f 148/152/7 149/142/7 147/150/7
f 150/153/8 151/154/8 149/155/8
f 152/156/9 153/157/9 151/154/9
f 154/158/10 155/116/10 153/159/10
f 156/160/11 157/114/11 155/116/11
f 158/155/12 143/148/12 157/161/12
f 156/162/13 152/163/13 148/164/13
f 162/165/5 163/166/5 161/167/5
f 164/168/6 165/169/6 163/79/6
f 166/170/7 167/59/7 165/169/7
f 168/171/8 169/172/8 167/173/8
f 170/174/9 171/175/9 169/172/9
f 172/176/10 173/177/10 171/175/10
f 174/178/11 175/179/11 173/177/11
f 176/180/12 161/167/12 175/74/12
f 181/181/13 179/182/13 177/183/13
f 2/184/3 184/185/3 8/186/3
f 7/187/3 185/188/3 1/189/3
f 2/1/1 8/190/1 3/2/1
f 3/4/2 8/191/2 7/5/2
f 5/7/3 6/192/3 4/8/3
f 5/10/4 7/193/4 1/11/4
f 12/12/5 14/50/5 13/13/5
f 14/15/6 16/18/6 15/16/6
f 16/18/7 18/194/7 17/19/7
f 18/20/8 20/23/8 19/21/8
f 20/23/9 22/25/9 21/24/9
f 22/25/10 24/27/10 23/26/10
f 24/27/11 26/42/11 25/28/11
f 26/29/12 12/12/12 11/14/12
f 27/33/13 9/195/13 10/196/13
f 10/196/13 32/197/13 31/31/13
f 31/31/13 30/198/13 29/32/13
f 29/32/13 28/199/13 27/33/13
f 27/33/13 10/196/13 31/31/13
f 36/34/5 38/69/5 37/35/5
f 38/37/6 40/40/6 39/38/6
f 40/40/7 42/200/7 41/41/7
f 42/42/8 44/44/8 43/43/8
f 44/44/9 46/46/9 45/45/9
f 46/46/10 48/48/10 47/47/10
f 48/48/11 50/61/11 49/49/11
f 50/50/12 36/34/12 35/36/12
f 51/53/13 33/201/13 34/202/13
f 34/202/13 56/203/13 55/51/13
f 55/51/13 54/204/13 53/52/13
f 53/52/13 52/205/13 51/53/13
f 51/53/13 34/202/13 55/51/13
f 60/54/5 62/90/5 61/55/5
f 62/57/6 64/60/6 63/58/6
f 64/60/7 66/15/7 65/17/7
f 66/61/8 68/63/8 67/62/8
f 68/63/9 70/65/9 69/64/9
f 70/65/10 72/67/10 71/66/10
f 72/67/11 74/206/11 73/68/11
f 74/69/12 60/54/12 59/56/12
f 75/72/13 57/207/13 58/208/13
f 58/208/13 80/209/13 79/70/13
f 79/70/13 78/210/13 77/71/13
f 77/71/13 76/211/13 75/72/13
f 75/72/13 58/208/13 79/70/13
f 84/73/5 86/180/5 85/74/5
f 86/30/6 88/78/6 87/76/6
f 88/78/7 90/212/7 89/79/7
f 90/80/8 92/83/8 91/81/8
f 92/83/9 94/213/9 93/84/9
f 94/85/10 96/88/10 95/86/10
f 96/88/11 98/214/11 97/89/11
f 98/90/12 84/73/12 83/75/12
f 99/93/13 81/215/13 82/216/13
f 82/216/13 104/217/13 103/91/13
f 103/91/13 102/218/13 101/92/13
f 101/92/13 100/219/13 99/93/13
f 99/93/13 82/216/13 103/91/13
f 106/94/27 108/97/27 3/95/27
f 108/97/13 106/94/13 105/98/13
f 107/99/28 105/98/28 109/100/28
f 106/94/29 5/96/29 109/100/29
f 110/101/17 3/95/17 108/97/17
f 111/102/18 112/220/18 114/103/18
f 113/105/19 114/221/19 116/106/19
f 115/107/20 116/106/20 118/108/20
f 117/110/30 118/222/30 120/111/30
f 120/111/31 122/223/31 121/113/31
f 121/114/23 122/224/23 124/115/23
f 123/116/24 124/115/24 126/117/24
f 126/119/25 112/220/25 111/102/25
f 116/123/26 114/225/26 112/226/26
f 112/226/26 126/227/26 124/121/26
f 124/121/26 122/228/26 120/122/26
f 120/122/26 118/229/26 116/123/26
f 116/123/26 112/226/26 124/121/26
f 128/124/5 130/140/5 129/125/5
f 130/127/6 132/130/6 131/128/6
f 132/130/7 134/104/7 133/131/7
f 134/117/8 136/134/8 135/132/8
f 136/134/9 138/230/9 137/135/9
f 138/136/10 140/139/10 139/137/10
f 140/139/11 142/231/11 141/140/11
f 142/141/12 128/124/12 127/126/12
f 132/145/13 130/232/13 128/233/13
f 128/233/13 142/234/13 140/143/13
f 140/143/13 138/235/13 136/144/13
f 136/144/13 134/162/13 132/145/13
f 132/145/13 128/233/13 140/143/13
f 144/146/5 146/236/5 145/147/5
f 146/149/6 148/152/6 147/150/6
f 148/152/7 150/237/7 149/142/7
f 150/153/8 152/156/8 151/154/8
f 152/156/9 154/238/9 153/157/9
f 154/158/10 156/160/10 155/116/10
f 156/160/11 158/239/11 157/114/11
f 158/155/12 144/146/12 143/148/12
f 148/164/13 146/240/13 144/241/13
f 144/241/13 158/242/13 156/162/13
f 156/162/13 154/243/13 152/163/13
f 152/163/13 150/244/13 148/164/13
f 148/164/13 144/241/13 156/162/13
f 162/165/5 164/245/5 163/166/5
f 164/168/6 166/170/6 165/169/6
f 166/170/7 168/246/7 167/59/7
f 168/171/8 170/174/8 169/172/8
f 170/174/9 172/176/9 171/175/9
f 172/176/10 174/178/10 173/177/10
f 174/178/11 176/247/11 175/179/11
f 176/180/12 162/165/12 161/167/12
f 177/183/13 159/248/13 160/249/13
f 160/249/13 182/250/13 181/181/13
f 181/181/13 180/251/13 179/182/13
f 179/182/13 178/252/13 177/183/13
f 177/183/13 160/249/13 181/181/13
f 2/184/3 183/188/3 184/185/3
f 7/187/3 186/185/3 185/188/3
