# Blender 5.1.2
# www.blender.org
o Street.X
v -9.000000 -0.000000 -9.000002
v -9.000002 -0.000000 -15.000001
v -9.000000 -0.000000 14.999999
v 9.000000 -0.000000 -15.000000
v 9.000000 -0.000000 14.999999
v 9.000000 -0.000000 -15.000000
v 9.000000 -0.000000 14.999999
v 9.000000 0.500000 -15.000000
v 9.000000 0.500000 14.999999
v 15.000000 0.500000 14.999999
v 15.000000 0.500000 -15.000000
v -9.000002 0.500000 -15.000002
v -15.000000 0.500000 8.999997
v -9.000000 0.500000 8.999997
v -9.000000 -0.000000 8.999997
v 9.000000 -0.000000 -9.000000
v 9.000000 0.500000 -9.000000
v 15.000000 0.500000 -9.000000
v -8.999998 0.500000 14.999997
v -14.999998 0.500000 14.999999
v -15.000002 0.500000 -15.000000
v 9.000000 -0.000000 8.999999
v 9.000000 0.500000 8.999999
v 15.000000 0.500000 8.999999
v 15.000000 -0.000000 -9.000000
v 15.000000 -0.000000 8.999999
v -9.000000 0.500000 -9.000002
v -15.000001 0.500000 -9.000000
v -15.000000 -0.000000 8.999997
v -15.000001 -0.000000 -9.000000
vn -0.0000 1.0000 -0.0000
vn -1.0000 -0.0000 -0.0000
vn 1.0000 -0.0000 -0.0000
vn -0.0000 -0.0000 -1.0000
vn -0.0000 -0.0000 1.0000
vt 0.611111 0.833333
vt 0.166667 0.833333
vt 0.333333 1.000000
vt 0.166667 1.000000
vt 0.527778 1.000000
vt 0.541667 0.833333
vt 0.541667 1.000000
vt 0.000000 0.000000
vt 0.500000 0.000000
vt 0.500000 0.166667
vt 0.513889 1.000000
vt 0.500000 0.833333
vt 0.513889 0.833333
vt -0.000000 0.833333
vt 0.166667 1.000000
vt -0.000000 1.000000
vt 0.333333 0.833333
vt 0.500000 1.000000
vt 0.333333 1.000000
vt 0.569444 1.000000
vt 0.583333 0.833333
vt 0.583333 1.000000
vt 0.666667 0.666667
vt 0.500000 0.666667
vt 0.833333 0.666667
vt 0.666667 0.500000
vt 0.833333 0.500000
vt 0.555556 0.833333
vt 0.597222 1.000000
vt 0.583333 0.833333
vt 0.597222 0.833333
vt 0.569444 1.000000
vt 0.555556 0.833333
vt 0.569444 0.833333
vt 0.833333 0.000000
vt 0.666667 0.500000
vt 0.666667 0.000000
vt 0.527778 0.833333
vt 0.611111 1.000000
vt 0.597222 0.833333
vt 0.333333 0.833333
vt 0.500000 0.833333
vt 0.000000 0.833333
vt 0.500000 1.000000
vt 0.500000 0.833333
vt 0.666667 0.166667
vt 0.666667 0.666667
vt 0.555556 1.000000
vt 0.555556 1.000000
vt 0.833333 0.500000
vt 0.527778 1.000000
s 0
f 4/1/1 16/1/1 6/1/1
f 18/2/1 8/3/1 17/4/1
f 17/5/2 6/6/2 16/7/2
f 3/8/1 5/9/1 22/10/1
f 15/11/3 19/12/3 3/13/3
f 21/14/1 27/15/1 12/16/1
f 10/17/1 23/18/1 9/19/1
f 9/20/2 22/21/2 7/22/2
f 22/10/1 25/23/1 16/24/1
f 14/25/1 20/26/1 19/27/1
f 26/28/4 23/7/4 24/6/4
f 25/29/5 17/30/5 16/31/5
f 2/32/3 27/33/3 1/34/3
f 15/35/1 30/36/1 29/37/1
f 30/38/5 27/11/5 28/13/5
f 29/39/4 14/40/4 15/1/4
f 18/2/1 11/41/1 8/3/1
f 17/5/2 8/38/2 6/6/2
f 4/42/1 2/43/1 3/8/1
f 16/24/1 4/42/1 3/8/1
f 22/10/1 16/24/1 3/8/1
f 5/9/1 7/9/1 22/10/1
f 15/11/3 14/44/3 19/12/3
f 21/14/1 28/2/1 27/15/1
f 10/17/1 24/45/1 23/18/1
f 9/20/2 23/34/2 22/21/2
f 22/10/1 26/46/1 25/23/1
f 14/25/1 13/47/1 20/26/1
f 26/28/4 22/48/4 23/7/4
f 25/29/5 18/22/5 17/30/5
f 2/32/3 12/49/3 27/33/3
f 15/35/1 1/50/1 30/36/1
f 30/38/5 1/51/5 27/11/5
f 29/39/4 13/29/4 14/40/4
