# Blender 5.2.0 LTS
# www.blender.org
o Street.C
v -9.000000 -0.000000 -15.000000
v -9.000000 -0.000000 9.000000
v -9.000000 0.500000 -15.000000
v -9.000000 0.500000 9.000000
v -15.000000 0.500000 15.000000
v -15.000000 0.500000 -15.000000
v 9.000000 -0.000000 -15.000000
v 9.000000 -0.000000 9.000000
v 9.000000 0.500000 -15.000000
v 9.000000 0.500000 9.000000
v 15.000000 0.500000 15.000000
v 15.000000 0.500000 -15.000000
vn -0.0000 1.0000 -0.0000
vn 1.0000 -0.0000 -0.0000
vn -1.0000 -0.0000 -0.0000
vn -0.0000 -0.0000 -1.0000
vt 0.125000 0.500000
vt 0.625000 0.625000
vt -0.000000 0.625000
vt 0.645833 1.000000
vt 0.635417 0.500000
vt 0.645833 0.500000
vt 0.125000 0.125000
vt 0.625000 0.000000
vt 0.625000 0.125000
vt 0.625000 1.000000
vt 0.635417 1.000000
vt 0.625000 0.000000
vt 1.000000 0.500000
vt 0.625000 0.500000
vt 0.645833 0.500000
vt 0.656250 0.875000
vt 0.645833 0.875000
vt 0.625000 0.500000
vt 0.000000 0.000000
vt 0.625000 0.500000
vt 1.000000 0.000000
vt 0.656250 0.500000
s 0
f 4/1/1 6/2/1 5/3/1
f 1/4/2 4/5/2 2/6/2
f 10/7/1 12/8/1 9/9/1
f 10/10/3 7/5/3 8/11/3
f 2/12/1 7/13/1 1/14/1
f 10/15/4 2/16/4 4/17/4
f 5/3/1 10/7/1 4/1/1
f 4/1/1 3/18/1 6/2/1
f 1/4/2 3/11/2 4/5/2
f 10/7/1 11/19/1 12/8/1
f 10/10/3 9/20/3 7/5/3
f 2/12/1 8/21/1 7/13/1
f 10/15/4 8/22/4 2/16/4
f 5/3/1 11/19/1 10/7/1
