# Blender 5.1.2
# www.blender.org
o Street.T
v -9.000011 -0.000000 -15.000000
v -9.000011 -0.000000 15.000000
v -9.000011 -0.000000 -15.000000
v -9.000011 -0.000000 15.000000
v -9.000011 0.500000 -15.000000
v -9.000011 0.500000 15.000000
v -15.000011 0.500000 15.000000
v -15.000011 0.500000 -15.000000
v 8.999989 -0.000000 -15.000000
v 8.999989 -0.000000 15.000000
v 8.999989 -0.000000 -15.000000
v 8.999989 -0.000000 15.000000
v 8.999989 0.500000 -15.000000
v 8.999989 0.500000 15.000000
v 15.000000 0.500000 15.000000
v 15.000000 0.500000 -15.000000
v 8.999989 -0.000000 -9.000000
v 8.999989 0.500000 -9.000000
v 15.000000 0.500000 -9.000000
v 8.999989 -0.000000 9.000000
v 8.999989 0.500000 9.000000
v 15.000000 0.500000 9.000000
v 15.000000 -0.000000 -9.000000
v 15.000000 -0.000000 9.000000
vn -0.0000 1.0000 -0.0000
vn -1.0000 -0.0000 -0.0000
vn -0.0000 -0.0000 -1.0000
vn -0.0000 -0.0000 1.0000
vt 0.774193 0.774194
vt 0.774193 0.580645
vt 0.967742 0.774194
vt 0.774193 0.774194
vt 0.983871 0.774194
vt 1.000000 0.580646
vt 1.000000 0.774194
vt 0.774193 0.774194
vt 0.967742 0.967742
vt 0.774193 0.967742
vt 0.983871 0.580646
vt 1.000000 0.387097
vt 1.000000 0.580646
vt 0.774193 0.000000
vt 0.967742 0.580645
vt 0.774193 0.580645
vt 0.580645 0.967742
vt 0.774193 0.967742
vt 1.000000 0.193549
vt 0.983871 0.387097
vt 0.983871 0.193549
vt 0.983871 0.000000
vt 1.000000 0.000000
vt 0.967742 0.967742
vt 0.983871 0.000000
vt 0.983871 0.967742
vt 0.000000 0.000000
vt 0.580645 0.000000
vt 0.967742 0.580645
vt 0.983871 0.580646
vt 0.967742 0.774194
vt 0.983871 0.387097
vt 0.967742 0.000000
vt 1.000000 0.387097
vt 0.967742 0.000000
vt 0.000000 0.967742
s 0
f 9/1/1 17/1/1 11/1/1
f 19/2/1 13/3/1 18/4/1
f 18/5/2 11/6/2 17/7/2
f 15/8/1 21/9/1 14/10/1
f 14/11/2 20/12/2 12/13/2
f 20/14/1 23/15/1 17/16/1
f 8/17/1 6/14/1 5/18/1
f 24/19/3 21/20/3 22/21/3
f 23/19/4 18/22/4 17/23/4
f 4/1/1 1/1/1 2/1/1
f 6/24/2 3/25/2 4/26/2
f 2/27/1 12/28/1 11/17/1
f 19/2/1 16/29/1 13/3/1
f 18/5/2 13/30/2 11/6/2
f 15/8/1 22/31/1 21/9/1
f 14/11/2 21/32/2 20/12/2
f 20/14/1 24/33/1 23/15/1
f 8/17/1 7/28/1 6/14/1
f 24/19/3 20/34/3 21/20/3
f 23/19/4 19/21/4 18/22/4
f 4/1/1 3/1/1 1/1/1
f 5/35/1 1/25/1 3/25/1
f 6/24/2 5/35/2 3/25/2
f 3/25/1 2/26/1 4/26/1
f 11/17/1 9/17/1 3/36/1
f 11/17/1 3/36/1 2/27/1
f 12/28/1 10/28/1 11/17/1
l 2 10
l 9 1
