# Blender 5.1.2
# www.blender.org
o Building.002
v -15.000000 84.453537 -5.503078
v -15.000000 84.453537 -10.903079
v -13.300000 84.453537 -5.503078
v -13.300000 84.453537 -10.903079
v -13.300000 86.153542 -5.503078
v -13.300001 86.153542 -10.903078
v -15.000000 86.153542 -10.903079
v -15.000000 86.153542 -5.503078
v -15.000000 84.453537 2.847452
v -15.000000 84.453537 -2.552547
v -13.300000 84.453537 2.847452
v -13.300000 84.453537 -2.552547
v -13.300000 86.153542 2.847452
v -13.300001 86.153542 -2.552547
v -15.000000 86.153542 -2.552547
v -15.000000 86.153542 2.847452
v -15.000000 84.453537 11.085869
v -15.000000 84.453537 5.685867
v -13.300000 84.453537 11.085869
v -13.300000 84.453537 5.685867
v -13.300000 86.153542 11.085869
v -13.300001 86.153542 5.685869
v -15.000000 86.153542 5.685867
v -15.000000 86.153542 11.085869
v -15.000000 69.274673 -5.503078
v -15.000000 69.274673 -10.903079
v -13.300000 69.274673 -5.503078
v -13.300000 69.274673 -10.903079
v -13.300000 70.974670 -5.503078
v -13.300001 70.974670 -10.903078
v -15.000000 70.974670 -10.903079
v -15.000000 70.974670 -5.503078
v -15.000000 69.274673 2.847452
v -15.000000 69.274673 -2.552547
v -13.300000 69.274673 2.847452
v -13.300000 69.274673 -2.552547
v -13.300000 70.974670 2.847452
v -13.300001 70.974670 -2.552547
v -15.000000 70.974670 -2.552547
v -15.000000 70.974670 2.847452
v -15.000000 69.274673 11.085869
v -15.000000 69.274673 5.685867
v -13.300000 69.274673 11.085869
v -13.300000 69.274673 5.685867
v -13.300000 70.974670 11.085869
v -13.300001 70.974670 5.685869
v -15.000000 70.974670 5.685867
v -15.000000 70.974670 11.085869
v -15.000000 53.201332 -5.503078
v -15.000000 53.201332 -10.903079
v -13.300000 53.201332 -5.503078
v -13.300000 53.201332 -10.903079
v -13.300000 54.901329 -5.503078
v -13.300001 54.901329 -10.903078
v -15.000000 54.901329 -10.903079
v -15.000000 54.901329 -5.503078
v -15.000000 53.201332 2.847452
v -15.000000 53.201332 -2.552547
v -13.300000 53.201332 2.847452
v -13.300000 53.201332 -2.552547
v -13.300000 54.901329 2.847452
v -13.300001 54.901329 -2.552547
v -15.000000 54.901329 -2.552547
v -15.000000 54.901329 2.847452
v -15.000000 53.201332 11.085869
v -15.000000 53.201332 5.685867
v -13.300000 53.201332 11.085869
v -13.300000 53.201332 5.685867
v -13.300000 54.901329 11.085869
v -13.300001 54.901329 5.685869
v -15.000000 54.901329 5.685867
v -15.000000 54.901329 11.085869
v -15.000000 37.512440 -5.503078
v -15.000000 37.512440 -10.903079
v -13.300000 37.512440 -5.503078
v -13.300000 37.512440 -10.903079
v -13.300000 39.212440 -5.503078
v -13.300001 39.212440 -10.903078
v -15.000000 39.212440 -10.903079
v -15.000000 39.212440 -5.503078
v -15.000000 37.512440 2.847452
v -15.000000 37.512440 -2.552547
v -13.300000 37.512440 2.847452
v -13.300000 37.512440 -2.552547
v -13.300000 39.212440 2.847452
v -13.300001 39.212440 -2.552547
v -15.000000 39.212440 -2.552547
v -15.000000 39.212440 2.847452
v -15.000000 37.512440 11.085869
v -15.000000 37.512440 5.685867
v -13.300000 37.512440 11.085869
v -13.300000 37.512440 5.685867
v -13.300000 39.212440 11.085869
v -13.300001 39.212440 5.685869
v -15.000000 39.212440 5.685867
v -15.000000 39.212440 11.085869
v -15.000000 22.734852 -5.503078
v -15.000000 22.734852 -10.903079
v -13.300000 22.734852 -5.503078
v -13.300000 22.734852 -10.903079
v -13.300000 24.434853 -5.503078
v -13.300001 24.434853 -10.903078
v -15.000000 24.434853 -10.903079
v -15.000000 24.434853 -5.503078
v -15.000000 22.734852 2.847452
v -15.000000 22.734852 -2.552547
v -13.300000 22.734852 2.847452
v -13.300000 22.734852 -2.552547
v -13.300000 24.434853 2.847452
v -13.300001 24.434853 -2.552547
v -15.000000 24.434853 -2.552547
v -15.000000 24.434853 2.847452
v -15.000000 22.734852 11.085869
v -15.000000 22.734852 5.685867
v -13.300000 22.734852 11.085869
v -13.300000 22.734852 5.685867
v -13.300000 24.434853 11.085869
v -13.300001 24.434853 5.685869
v -15.000000 24.434853 5.685867
v -15.000000 24.434853 11.085869
v -15.000000 16.000000 10.000000
v -15.000000 22.000000 10.000000
v -15.000000 16.000000 -10.000000
v -15.000000 22.000000 -10.000000
v -14.500000 16.000000 10.000000
v -14.500000 22.000000 10.000000
v -14.500000 16.000000 -10.000000
v -14.500000 22.000000 -10.000000
v -15.000000 17.000000 15.000000
v -15.000000 17.000000 -15.000000
v -15.000000 17.000000 15.000000
v -15.000000 17.000000 -15.000000
v -15.000000 17.000000 15.000000
v -15.000000 100.000000 15.000000
v -15.000000 17.000000 -15.000000
v -15.000000 100.000000 -15.000000
v -15.000000 0.500000 -13.000000
v -15.000000 0.500000 13.000000
v -15.000000 14.980000 -13.000000
v -15.000000 14.980000 13.000000
v -15.000000 0.500000 15.000000
v -15.000000 0.500000 -15.000000
v -15.000000 17.000000 15.000000
v -15.000000 17.000000 -15.000000
v -16.000000 0.500000 -13.000000
v -16.000000 0.500000 13.000000
v -16.000000 14.980000 -13.000000
v -16.000000 14.980000 13.000000
v -15.000000 17.000000 15.000000
v -15.000000 17.000000 -15.000000
v -15.000000 24.400002 -13.000000
v -15.000000 25.000000 -13.000000
v -15.000000 24.400002 -13.600000
v -15.000000 25.000000 -13.600000
v -12.052979 24.400002 -13.000000
v -12.052979 25.000000 -13.000000
v -12.052979 24.400002 -13.600000
v -12.052979 25.000000 -13.600000
v -15.000000 18.000000 -13.000000
v -15.000000 18.599998 -13.000000
v -15.000000 18.000000 -13.600000
v -15.000000 18.599998 -13.600000
v -12.052979 18.000000 -13.000000
v -12.052979 18.599998 -13.000000
v -12.052979 18.000000 -13.600000
v -12.052979 18.599998 -13.600000
v -12.052979 16.046116 -12.700000
v -12.052979 27.046116 -12.700000
v -12.052979 16.046116 -13.900000
v -12.052979 27.046116 -13.900000
v -7.052979 16.046116 -12.700000
v -7.052979 27.046116 -12.700000
v -7.052979 16.046116 -13.900000
v -7.052979 27.046116 -13.900000
vn -1.0000 -0.0000 -0.0000
vn -0.0000 -0.0000 1.0000
vn -0.0000 -0.0000 -1.0000
vn -0.0000 1.0000 -0.0000
vn 1.0000 -0.0000 -0.0000
vn -0.0000 -1.0000 -0.0000
vt 0.798179 0.629574
vt 0.777697 0.564514
vt 0.798179 0.564514
vt 0.798179 0.670538
vt 0.777697 0.650056
vt 0.798179 0.650056
vt 0.818661 0.650056
vt 0.798179 0.650056
vt 0.880196 0.697402
vt 0.900678 0.762462
vt 0.880196 0.762462
vt 0.967959 0.572741
vt 0.947477 0.507681
vt 0.967959 0.507681
vt 0.818661 0.670538
vt 0.947477 0.767922
vt 0.967959 0.788404
vt 0.947477 0.788404
vt 0.967959 0.572741
vt 0.988441 0.637801
vt 0.967959 0.637801
vt 0.871762 0.630896
vt 0.851280 0.565836
vt 0.871762 0.565836
vt 0.775136 0.766077
vt 0.754654 0.745595
vt 0.775136 0.745595
vt 0.775136 0.745595
vt 0.795617 0.766077
vt 0.775136 0.766077
vt 0.947477 0.702861
vt 0.967959 0.767922
vt 0.967959 0.377560
vt 0.947477 0.312500
vt 0.967959 0.312500
vt 0.777697 0.629574
vt 0.798179 0.629574
vt 0.795618 0.745595
vt 0.816099 0.766077
vt 0.795618 0.766077
vt 0.967959 0.312500
vt 0.988441 0.377560
vt 0.836581 0.745595
vt 0.816100 0.680535
vt 0.836581 0.680535
vt 0.836581 0.766077
vt 0.816099 0.745595
vt 0.836581 0.745595
vt 0.967959 0.767922
vt 0.988441 0.788404
vt 0.967959 0.788404
vt 0.988441 0.702861
vt 0.967959 0.702861
vt 0.859714 0.697402
vt 0.839232 0.632342
vt 0.859714 0.632342
vt 0.794037 0.554556
vt 0.773555 0.534074
vt 0.794037 0.534074
vt 0.794037 0.534074
vt 0.814519 0.554556
vt 0.794037 0.554556
vt 0.892244 0.630896
vt 0.871762 0.630896
vt 0.967959 0.442620
vt 0.947477 0.377560
vt 0.967959 0.377560
vt 0.773555 0.554556
vt 0.753073 0.534074
vt 0.814519 0.534074
vt 0.835001 0.554556
vt 0.814519 0.554556
vt 0.967959 0.377560
vt 0.988441 0.442620
vt 0.967959 0.442620
vt 0.880196 0.697402
vt 0.880196 0.632342
vt 0.855483 0.554556
vt 0.835001 0.534074
vt 0.855483 0.534074
vt 0.855483 0.534074
vt 0.875965 0.554556
vt 0.855483 0.554556
vt 0.988441 0.767922
vt 0.775136 0.745595
vt 0.754654 0.680535
vt 0.775136 0.680535
vt 0.896447 0.554556
vt 0.875965 0.534074
vt 0.896447 0.534074
vt 0.896447 0.534074
vt 0.916929 0.554556
vt 0.896447 0.554556
vt 0.880196 0.632342
vt 0.900678 0.697402
vt 0.880196 0.697402
vt 0.818661 0.629574
vt 0.798179 0.564514
vt 0.818661 0.564514
vt 0.937411 0.554556
vt 0.916929 0.534074
vt 0.937411 0.534074
vt 0.900678 0.697402
vt 0.921160 0.717884
vt 0.900678 0.717884
vt 0.988441 0.507681
vt 0.967959 0.507681
vt 0.967959 0.637801
vt 0.947477 0.572741
vt 0.921160 0.738366
vt 0.900678 0.717884
vt 0.921160 0.717884
vt 0.900678 0.738366
vt 0.921160 0.758848
vt 0.900678 0.758848
vt 0.892244 0.565836
vt 0.912726 0.630896
vt 0.892244 0.630896
vt 0.967959 0.702861
vt 0.947477 0.637801
vt 0.921160 0.779330
vt 0.900678 0.758848
vt 0.921160 0.758848
vt 0.839232 0.762462
vt 0.859714 0.782944
vt 0.839232 0.782944
vt 0.839232 0.697402
vt 0.859714 0.762462
vt 0.839232 0.762462
vt 0.947477 0.442621
vt 0.967959 0.442621
vt 0.880196 0.782944
vt 0.880196 0.762462
vt 0.900678 0.782944
vt 0.880196 0.782944
vt 0.988441 0.572741
vt 0.967959 0.572741
vt 0.775136 0.680535
vt 0.795618 0.680535
vt 0.775136 0.786559
vt 0.754654 0.766077
vt 0.775136 0.766077
vt 0.795617 0.786559
vt 0.775136 0.786559
vt 0.900678 0.632342
vt 0.921160 0.697402
vt 0.900678 0.697402
vt 0.816099 0.745595
vt 0.795617 0.680535
vt 0.816099 0.680535
vt 0.816099 0.786559
vt 0.836581 0.786559
vt 0.859714 0.697402
vt 0.880196 0.762462
vt 0.818661 0.564514
vt 0.824685 0.636803
vt 0.818661 0.636803
vt 0.990014 0.989602
vt 0.749051 0.917312
vt 0.990014 0.917313
vt 0.824685 0.564514
vt 0.830709 0.636803
vt 0.824685 0.636803
vt 0.990285 0.818074
vt 0.749321 0.812050
vt 0.990285 0.812050
vt 0.990285 0.828005
vt 0.749321 0.821981
vt 0.990285 0.821981
vt 0.000000 0.000000
vt 0.361446 1.000000
vt 0.000000 1.000000
vt 0.709920 0.770899
vt 0.697872 0.596441
vt 0.709920 0.596441
vt 0.708096 0.965586
vt 0.370747 0.989924
vt 0.394843 0.965586
vt 0.732193 0.791128
vt 0.732193 0.989924
vt 0.370747 0.791128
vt 0.394843 0.791128
vt 0.700879 0.791786
vt 0.404014 0.957117
vt 0.404014 0.791786
vt 0.370685 0.769213
vt 0.683938 0.757165
vt 0.683938 0.769213
vt 0.715779 0.596441
vt 0.727828 0.770899
vt 0.715779 0.770899
vt 0.683938 0.739257
vt 0.370685 0.751306
vt 0.370685 0.739257
vt 0.936029 0.200094
vt 0.949265 0.135086
vt 0.949265 0.200094
vt 0.936029 0.265102
vt 0.949265 0.200094
vt 0.949265 0.265102
vt 0.922794 0.290666
vt 0.909559 0.225659
vt 0.922794 0.225659
vt 0.936029 0.290666
vt 0.922794 0.225659
vt 0.936029 0.225659
vt 0.949265 0.070078
vt 0.962500 0.005070
vt 0.962500 0.070078
vt 0.949265 0.135086
vt 0.962500 0.070078
vt 0.962500 0.135086
vt 0.949265 0.070078
vt 0.936030 0.005070
vt 0.949265 0.005070
vt 0.949265 0.135086
vt 0.936029 0.070078
vt 0.883088 0.005070
vt 0.856618 0.247717
vt 0.856618 0.005070
vt 0.620404 0.005070
vt 0.730699 0.247717
vt 0.620404 0.247717
vt 0.909559 0.247717
vt 0.883088 0.247717
vt 0.730699 0.005070
vt 0.840993 0.247717
vt 0.936029 0.115364
vt 0.909559 0.005070
vt 0.936029 0.005070
vt 0.909559 0.115365
vt 0.936029 0.115365
vt 0.777697 0.670538
vt 0.900678 0.697402
vt 0.947477 0.572741
vt 0.798179 0.670538
vt 0.988441 0.572741
vt 0.851280 0.630896
vt 0.754654 0.766077
vt 0.795617 0.745595
vt 0.988441 0.312500
vt 0.816100 0.745595
vt 0.816099 0.766077
vt 0.839232 0.697402
vt 0.814519 0.534074
vt 0.892244 0.565836
vt 0.947477 0.442620
vt 0.753073 0.554556
vt 0.835001 0.534074
vt 0.988441 0.377560
vt 0.859714 0.697402
vt 0.875965 0.554556
vt 0.900678 0.632342
vt 0.916929 0.554556
vt 0.921160 0.697402
vt 0.947477 0.637801
vt 0.900678 0.738366
vt 0.921160 0.738366
vt 0.912726 0.565836
vt 0.900678 0.779330
vt 0.859714 0.762462
vt 0.859714 0.782944
vt 0.900678 0.762462
vt 0.754654 0.786559
vt 0.795617 0.766077
vt 0.921160 0.632342
vt 0.795617 0.745595
vt 0.836581 0.766077
vt 0.880196 0.697402
vt 0.824685 0.564514
vt 0.749051 0.989602
vt 0.830709 0.564514
vt 0.749321 0.818074
vt 0.749321 0.828005
vt 0.361446 0.000000
vt 0.697872 0.770899
vt 0.708096 0.791128
vt 0.700879 0.957117
vt 0.370685 0.757165
vt 0.727828 0.596441
vt 0.683938 0.751306
vt 0.936029 0.135086
vt 0.909559 0.290666
vt 0.922794 0.290666
vt 0.949265 0.005070
vt 0.936029 0.135086
vt 0.909559 0.005070
vt 0.840993 0.005070
vt 0.909559 0.115364
vt 0.909559 0.225659
s 0
f 3/1/1 6/2/1 4/3/1
f 2/4/2 6/5/2 7/6/2
f 8/1/3 3/7/3 1/8/3
f 1/9/4 4/10/4 2/11/4
f 11/12/1 14/13/1 12/14/1
f 10/15/2 14/8/2 15/7/2
f 16/16/3 11/17/3 9/18/3
f 9/19/4 12/20/4 10/21/4
f 19/22/1 22/23/1 20/24/1
f 18/25/2 22/26/2 23/27/2
f 24/28/3 19/29/3 17/30/3
f 17/31/4 20/32/4 18/16/4
f 27/33/1 30/34/1 28/35/1
f 26/6/2 30/36/2 31/37/2
f 32/38/3 27/39/3 25/40/3
f 25/41/4 28/42/4 26/33/4
f 35/43/1 38/44/1 36/45/1
f 34/46/2 38/47/2 39/48/2
f 40/49/3 35/50/3 33/51/3
f 33/21/4 36/52/4 34/53/4
f 43/54/1 46/55/1 44/56/1
f 42/57/2 46/58/2 47/59/2
f 48/60/3 43/61/3 41/62/3
f 41/24/4 44/63/4 42/64/4
f 51/65/1 54/66/1 52/67/1
f 50/68/2 54/69/2 55/58/2
f 56/70/3 51/71/3 49/72/3
f 49/73/4 52/74/4 50/75/4
f 59/76/1 62/56/1 60/77/1
f 58/78/2 62/79/2 63/80/2
f 64/81/3 59/82/3 57/83/3
f 57/53/4 60/84/4 58/49/4
f 67/85/1 70/86/1 68/87/1
f 66/88/2 70/89/2 71/90/2
f 72/91/3 67/92/3 65/93/3
f 65/94/4 68/95/4 66/96/4
f 75/97/1 78/98/1 76/99/1
f 74/100/2 78/101/2 79/102/2
f 80/103/3 75/104/3 73/105/3
f 73/75/4 76/106/4 74/107/4
f 83/108/1 86/109/1 84/12/1
f 82/110/2 86/111/2 87/112/2
f 88/113/3 83/114/3 81/115/3
f 81/116/4 84/117/4 82/118/4
f 91/119/1 94/120/1 92/108/1
f 90/121/2 94/122/2 95/123/2
f 96/124/3 91/125/3 89/126/3
f 89/127/4 92/128/4 90/129/4
f 99/14/1 102/130/1 100/131/1
f 98/132/2 102/128/2 103/11/2
f 104/133/3 99/134/3 97/135/3
f 97/107/4 100/136/4 98/137/4
f 107/38/1 110/138/1 108/139/1
f 106/140/2 110/141/2 111/142/2
f 112/25/3 107/143/3 105/144/3
f 105/145/4 108/146/4 106/147/4
f 115/148/1 118/149/1 116/150/1
f 114/151/2 118/40/2 119/39/2
f 120/39/3 115/152/3 113/151/3
f 113/153/4 116/154/4 114/128/4
f 124/155/3 127/156/3 123/157/3
f 128/158/5 125/159/5 127/160/5
f 126/161/2 121/162/2 125/163/2
f 127/164/6 121/165/6 123/166/6
f 124/167/4 126/168/4 128/169/4
f 129/36/4 132/36/4 131/36/4
f 136/170/5 133/171/5 135/172/5
f 138/173/3 148/174/3 140/175/3
f 139/176/5 143/177/5 140/178/5
f 139/176/5 142/179/5 144/180/5
f 140/178/5 141/181/5 138/182/5
f 145/183/5 148/184/5 146/185/5
f 140/186/6 147/187/6 139/188/6
f 139/189/2 145/190/2 137/191/2
f 137/192/4 146/193/4 138/194/4
f 143/36/4 150/36/4 149/36/4
f 154/195/3 157/196/3 153/197/3
f 156/198/2 151/199/2 155/200/2
f 157/201/6 151/202/6 153/203/6
f 154/204/4 156/205/4 158/206/4
f 162/207/3 165/208/3 161/209/3
f 164/210/2 159/211/2 163/212/2
f 165/213/6 159/214/6 161/215/6
f 162/216/4 164/217/4 166/207/4
f 168/218/1 169/219/1 167/220/1
f 170/221/3 173/222/3 169/223/3
f 174/218/5 171/224/5 173/225/5
f 172/226/2 167/227/2 171/222/2
f 173/228/6 167/229/6 169/230/6
f 170/206/4 172/231/4 174/232/4
f 3/1/1 5/36/1 6/2/1
f 2/4/2 4/233/2 6/5/2
f 8/1/3 5/97/3 3/7/3
f 1/9/4 3/234/4 4/10/4
f 11/12/1 13/235/1 14/13/1
f 10/15/2 12/236/2 14/8/2
f 16/16/3 13/32/3 11/17/3
f 9/19/4 11/237/4 12/20/4
f 19/22/1 21/238/1 22/23/1
f 18/25/2 20/239/2 22/26/2
f 24/28/3 21/240/3 19/29/3
f 17/31/4 19/119/4 20/32/4
f 27/33/1 29/66/1 30/34/1
f 26/6/2 28/5/2 30/36/2
f 32/38/3 29/148/3 27/39/3
f 25/41/4 27/241/4 28/42/4
f 35/43/1 37/242/1 38/44/1
f 34/46/2 36/243/2 38/47/2
f 40/49/3 37/84/3 35/50/3
f 33/21/4 35/20/4 36/52/4
f 43/54/1 45/244/1 46/55/1
f 42/57/2 44/68/2 46/58/2
f 48/60/3 45/245/3 43/61/3
f 41/24/4 43/246/4 44/63/4
f 51/65/1 53/247/1 54/66/1
f 50/68/2 52/248/2 54/69/2
f 56/70/3 53/249/3 51/71/3
f 49/73/4 51/250/4 52/74/4
f 59/76/1 61/251/1 62/56/1
f 58/78/2 60/71/2 62/79/2
f 64/81/3 61/89/3 59/82/3
f 57/53/4 59/52/4 60/84/4
f 67/85/1 69/26/1 70/86/1
f 66/88/2 68/252/2 70/89/2
f 72/91/3 69/101/3 67/92/3
f 65/94/4 67/253/4 68/95/4
f 75/97/1 77/1/1 78/98/1
f 74/100/2 76/254/2 78/101/2
f 80/103/3 77/255/3 75/104/3
f 73/75/4 75/74/4 76/106/4
f 83/108/1 85/256/1 86/109/1
f 82/110/2 84/257/2 86/111/2
f 88/113/3 85/258/3 83/114/3
f 81/116/4 83/259/4 84/117/4
f 91/119/1 93/31/1 94/120/1
f 90/121/2 92/260/2 94/122/2
f 96/124/3 93/261/3 91/125/3
f 89/127/4 91/153/4 92/128/4
f 99/14/1 101/13/1 102/130/1
f 98/132/2 100/262/2 102/128/2
f 104/133/3 101/263/3 99/134/3
f 97/107/4 99/106/4 100/136/4
f 107/38/1 109/85/1 110/138/1
f 106/140/2 108/264/2 110/141/2
f 112/25/3 109/265/3 107/143/3
f 105/145/4 107/266/4 108/146/4
f 115/148/1 117/267/1 118/149/1
f 114/151/2 116/143/2 118/40/2
f 120/39/3 117/268/3 115/152/3
f 113/153/4 115/269/4 116/154/4
f 124/155/3 128/270/3 127/156/3
f 128/158/5 126/271/5 125/159/5
f 126/161/2 122/272/2 121/162/2
f 127/164/6 125/273/6 121/165/6
f 124/167/4 122/274/4 126/168/4
f 129/36/4 130/36/4 132/36/4
f 136/170/5 134/275/5 133/171/5
f 138/173/3 146/276/3 148/174/3
f 139/176/5 144/180/5 143/177/5
f 139/176/5 137/277/5 142/179/5
f 140/178/5 143/177/5 141/181/5
f 145/183/5 147/278/5 148/184/5
f 140/186/6 148/279/6 147/187/6
f 139/189/2 147/280/2 145/190/2
f 137/192/4 145/281/4 146/193/4
f 143/36/4 144/36/4 150/36/4
f 154/195/3 158/282/3 157/196/3
f 156/198/2 152/195/2 151/199/2
f 157/201/6 155/283/6 151/202/6
f 154/204/4 152/284/4 156/205/4
f 162/207/3 166/285/3 165/208/3
f 164/210/2 160/213/2 159/211/2
f 165/213/6 163/217/6 159/214/6
f 162/216/4 160/286/4 164/217/4
f 168/218/1 170/225/1 169/219/1
f 170/221/3 174/226/3 173/222/3
f 174/218/5 172/287/5 171/224/5
f 172/226/2 168/288/2 167/227/2
f 173/228/6 171/289/6 167/229/6
f 170/206/4 168/290/4 172/231/4
