# Blender 5.1.2
# www.blender.org
o Street.I
v 0.000000 -0.000000 -15.000000
v 0.000000 -0.000000 15.000000
v -9.000000 -0.000000 -15.000000
v -9.000000 -0.000000 15.000000
v -9.000000 -0.000000 -15.000000
v -9.000000 -0.000000 15.000000
v -9.000000 0.500000 -15.000000
v -9.000000 0.500000 15.000000
v -15.000000 0.500000 15.000000
v -15.000000 0.500000 -15.000000
v 9.000000 -0.000000 -15.000000
v 9.000000 -0.000000 15.000000
v 9.000000 -0.000000 -15.000000
v 9.000000 -0.000000 15.000000
v 9.000000 0.500000 -15.000000
v 9.000000 0.500000 15.000000
v 15.000000 0.500000 15.000000
v 15.000000 0.500000 -15.000000
vn -0.0000 1.0000 -0.0000
vn 1.0000 -0.0000 -0.0000
vn -1.0000 -0.0000 -0.0000
vt 0.000000 0.967742
vt 0.774193 0.967742
vt 0.580645 0.000000
vt 0.774193 0.000000
vt 0.983871 0.967742
vt 0.967742 0.000000
vt 0.983871 0.000000
vt 0.967742 0.000000
vt 0.983871 0.967742
vt 1.000000 0.000000
vt 1.000000 0.967742
vt 0.290323 0.967742
vt 0.290323 0.000000
vt 0.580645 0.967742
vt 0.967742 0.967742
vt 0.967742 0.967742
vt 0.983871 0.000000
vt 0.000000 0.000000
s 0
f 4/1/1 5/1/1 6/1/1
f 7/2/1 9/3/1 8/4/1
f 5/5/2 8/6/2 6/7/2
f 12/1/1 13/1/1 11/1/1
f 17/8/1 15/2/1 16/4/1
f 16/9/3 13/10/3 14/11/3
f 1/12/1 2/13/1 11/14/1
f 4/1/1 3/1/1 5/1/1
f 7/2/1 10/14/1 9/3/1
f 5/5/2 7/15/2 8/6/2
f 12/1/1 14/1/1 13/1/1
f 17/8/1 18/16/1 15/2/1
f 16/9/3 15/17/3 13/10/3
f 1/12/1 3/1/1 4/18/1
f 2/13/1 12/3/1 11/14/1
f 1/12/1 4/18/1 2/13/1
